<?xml version="1.0" encoding="utf-8"?>
<!-- Generator: Adobe Illustrator 13.0.0, SVG Export Plug-In . SVG Version: 6.00 Build 14948)  -->
<!DOCTYPE svg [
	<!ENTITY ns_flows "http://ns.adobe.com/Flows/1.0/">
	<!ENTITY ns_extend "http://ns.adobe.com/Extensibility/1.0/">
	<!ENTITY ns_ai "http://ns.adobe.com/AdobeIllustrator/10.0/">
	<!ENTITY ns_graphs "http://ns.adobe.com/Graphs/1.0/">
]>
<svg version="1.2" baseProfile="tiny" id="Layer_1" xmlns:x="&ns_extend;" xmlns:i="&ns_ai;" xmlns:graph="&ns_graphs;"
	 xmlns="http://www.w3.org/2000/svg" xmlns:xlink="http://www.w3.org/1999/xlink" xmlns:a="http://ns.adobe.com/AdobeSVGViewerExtensions/3.0/"
	 x="0px" y="0px" width="105.692px" height="130px" viewBox="0 0 105.692 130" xml:space="preserve">
<g id="cogs">
	<path fill="#30D9BF" d="M11.644,21.497l2.928,0.151c-0.001,0.005,0,0.011,0.001,0.018c1.169-0.16,2.287,0.6,2.537,1.774
		c0.251,1.179-0.46,2.328-1.6,2.659c0.002,0.006,0.004,0.011,0.005,0.017l-2.602,1.328c-0.919,0.47-1.286,1.604-0.818,2.523
		l0.001,0.001c0.468,0.917,1.602,1.287,2.521,0.817l2.62-1.336c0.002,0.003,0.006,0.007,0.008,0.011
		c0.935-0.718,2.276-0.618,3.079,0.273c0.803,0.891,0.764,2.233-0.044,3.09c0.003,0.003,0.006,0.008,0.011,0.011l-1.599,2.466
		c-0.56,0.865-0.312,2.031,0.552,2.592c0.865,0.563,2.031,0.312,2.593-0.553l1.59-2.452c0.006,0.001,0.011,0.004,0.016,0.006
		c0.444-1.098,1.663-1.688,2.809-1.316c1.143,0.37,1.782,1.557,1.505,2.707c0.005,0.001,0.01,0.002,0.016,0.003l-0.151,2.927
		c-0.054,1.029,0.746,1.915,1.774,1.969h0.001c1.029,0.053,1.914-0.747,1.969-1.775l0.15-2.927c0.006,0,0.011-0.002,0.017-0.001
		c-0.159-1.172,0.601-2.287,1.776-2.538c1.175-0.251,2.326,0.46,2.658,1.599c0.006-0.003,0.012-0.004,0.017-0.006l1.329,2.605
		c0.469,0.918,1.604,1.286,2.521,0.816c0.918-0.468,1.285-1.602,0.817-2.521l-1.337-2.618c0.004-0.004,0.008-0.007,0.012-0.01
		c-0.716-0.936-0.615-2.275,0.275-3.078c0.89-0.802,2.233-0.764,3.089,0.045c0.003-0.003,0.007-0.007,0.01-0.01l2.468,1.601
		c0.865,0.561,2.031,0.311,2.591-0.553l0.001-0.001c0.561-0.865,0.311-2.032-0.553-2.593l-2.452-1.59
		c0.003-0.005,0.005-0.009,0.007-0.015c-1.099-0.447-1.689-1.664-1.317-2.812c0.371-1.141,1.557-1.782,2.706-1.503
		c0.001-0.006,0.003-0.011,0.005-0.016l2.927,0.151c1.028,0.053,1.915-0.746,1.968-1.775l0,0c0.053-1.03-0.746-1.916-1.775-1.969
		l-2.927-0.152c-0.001-0.004-0.002-0.01-0.003-0.015c-1.171,0.158-2.286-0.6-2.536-1.776c-0.251-1.177,0.46-2.328,1.6-2.659
		c-0.002-0.005-0.003-0.011-0.006-0.016l2.603-1.328c0.918-0.469,1.287-1.604,0.818-2.521l-0.001-0.001
		c-0.468-0.918-1.601-1.287-2.52-0.817l-2.62,1.336c-0.002-0.004-0.006-0.009-0.009-0.012c-0.934,0.718-2.275,0.617-3.078-0.275
		c-0.802-0.89-0.766-2.234,0.046-3.089c-0.004-0.004-0.008-0.007-0.012-0.01l1.599-2.466c0.56-0.866,0.312-2.032-0.553-2.594
		c-0.864-0.561-2.031-0.312-2.591,0.554l-1.59,2.452c-0.005-0.001-0.011-0.004-0.017-0.006C37.03,7.39,35.813,7.981,34.664,7.61
		c-1.142-0.372-1.782-1.56-1.502-2.708c-0.006-0.001-0.011-0.002-0.016-0.003l0.151-2.927c0.052-1.03-0.746-1.916-1.775-1.969l0,0
		c-1.03-0.053-1.916,0.746-1.969,1.775l-0.151,2.927c-0.005,0-0.011,0-0.016,0.001c0.159,1.172-0.599,2.287-1.775,2.539
		c-1.179,0.251-2.332-0.462-2.659-1.603c-0.006,0.001-0.012,0.003-0.019,0.005l-1.328-2.603c-0.468-0.917-1.602-1.286-2.521-0.817
		c-0.917,0.47-1.285,1.604-0.816,2.522l1.335,2.617c-0.006,0.002-0.01,0.006-0.013,0.009c0.718,0.935,0.619,2.276-0.274,3.079
		c-0.891,0.803-2.235,0.766-3.092-0.046c-0.003,0.004-0.006,0.007-0.01,0.011L15.75,8.822c-0.865-0.562-2.032-0.313-2.592,0.553l0,0
		c-0.56,0.866-0.312,2.033,0.554,2.593l2.451,1.589c-0.003,0.005-0.004,0.011-0.008,0.016c1.1,0.446,1.689,1.664,1.318,2.81
		c-0.37,1.144-1.557,1.783-2.708,1.505c0,0.004-0.001,0.009-0.002,0.015l-2.928-0.152c-1.029-0.053-1.916,0.746-1.969,1.776v0.001
		C9.814,20.557,10.613,21.442,11.644,21.497z M30.757,12.397c4.524,0.165,8.061,3.967,7.896,8.494
		c-0.165,4.525-3.971,8.061-8.494,7.896c-4.526-0.165-8.06-3.969-7.896-8.494C22.429,15.768,26.23,12.232,30.757,12.397z"/>
	<path fill="#3570FF" d="M24.689,20.591c0-3.186,2.582-5.768,5.768-5.768l0,0c3.186,0,5.768,2.582,5.768,5.768l0,0
		c0,3.186-2.582,5.768-5.768,5.768l0,0C27.271,26.359,24.689,23.777,24.689,20.591L24.689,20.591z M26.674,20.591
		c0.004,2.089,1.693,3.779,3.782,3.782l0,0c2.089-0.003,3.781-1.693,3.783-3.782l0,0c-0.002-2.089-1.693-3.779-3.783-3.783l0,0
		C28.368,16.813,26.678,18.502,26.674,20.591L26.674,20.591z"/>
	<path fill="#F0E3E3" d="M11.621,77.187v0.012l-2.856,0.133c-1.032,0.049-1.833,0.931-1.787,1.959v0.001
		c0.048,1.029,0.93,1.832,1.959,1.785l2.856-0.134v0.005c1.161-0.131,2.222,0.676,2.393,1.838c0.17,1.167-0.625,2.246-1.776,2.448
		c0,0.002,0,0.006,0.002,0.01l-2.767,0.686c-1.002,0.248-1.618,1.27-1.37,2.27v0.001c0.25,1.001,1.272,1.616,2.273,1.368
		l2.768-0.686c0,0.002,0.002,0.003,0.002,0.004c1.112-0.359,2.315,0.225,2.711,1.334c0.394,1.113-0.174,2.329-1.269,2.749
		c0,0.002,0.002,0.006,0.004,0.008l-2.576,1.212c-0.934,0.438-1.337,1.562-0.9,2.492c0.437,0.934,1.562,1.339,2.494,0.9l2.583-1.213
		c0,0.002,0.001,0.003,0.001,0.005c1.022-0.57,2.318-0.232,2.921,0.779c0.604,1.014,0.284,2.315-0.707,2.942l0.005,0.008
		l-2.292,1.691c-0.831,0.612-1.009,1.791-0.396,2.621v0.001c0.612,0.828,1.793,1.007,2.622,0.395l2.298-1.695
		c0.002,0.001,0.004,0.003,0.004,0.003c0.892-0.754,2.226-0.675,3.015,0.197c0.786,0.875,0.729,2.209-0.116,3.019
		c0.002,0.002,0.004,0.005,0.008,0.008l-1.926,2.11c-0.696,0.763-0.641,1.954,0.121,2.648c0.763,0.695,1.956,0.639,2.65-0.123
		l1.925-2.111c0.002,0.002,0.003,0.003,0.003,0.005c0.728-0.917,2.052-1.102,2.995-0.396c0.945,0.704,1.147,2.024,0.476,2.981
		c0.004,0.002,0.006,0.004,0.009,0.006l-1.474,2.445c-0.532,0.883-0.244,2.041,0.639,2.574c0.88,0.532,2.039,0.245,2.571-0.637
		l1.47-2.441c0.001,0.002,0.003,0.003,0.004,0.004c0.533-1.046,1.799-1.485,2.866-0.979c1.064,0.508,1.52,1.766,1.046,2.837
		c0.002,0.001,0.004,0.002,0.006,0.004l-0.965,2.681c-0.351,0.971,0.155,2.052,1.124,2.401c0.971,0.35,2.05-0.157,2.4-1.128
		l0.968-2.678c0.002,0.001,0.004,0.001,0.006,0.002c0.318-1.13,1.474-1.81,2.621-1.521c1.141,0.291,1.834,1.436,1.578,2.578
		c0.004,0,0.006,0,0.008,0.001l-0.426,2.823c-0.153,1.019,0.556,1.979,1.574,2.132c1.019,0.155,1.979-0.553,2.132-1.573l0.426-2.819
		h0.007c0.093-1.167,1.096-2.059,2.273-1.998c1.175,0.063,2.076,1.046,2.052,2.214h0.006l0.135,2.857
		c0.048,1.029,0.928,1.832,1.958,1.785h0.002c1.03-0.049,1.833-0.931,1.784-1.96l-0.132-2.857c0.002,0,0.006,0,0.007,0
		c-0.132-1.16,0.675-2.224,1.84-2.394c1.167-0.17,2.244,0.622,2.448,1.776c0.002,0,0.003,0,0.005-0.001l0.685,2.77
		c0.249,1,1.271,1.615,2.268,1.367l0.002-0.001c1.002-0.248,1.619-1.27,1.372-2.27l-0.685-2.77c0.002-0.001,0.003-0.002,0.005-0.003
		c-0.36-1.113,0.224-2.316,1.335-2.711c1.112-0.395,2.328,0.175,2.747,1.27c0.002,0,0.004-0.001,0.006-0.002l1.207,2.577
		c0.441,0.933,1.563,1.337,2.494,0.898h0.003c0.935-0.439,1.339-1.56,0.901-2.494l-1.213-2.582c0.002-0.002,0.004-0.002,0.006-0.003
		c-0.569-1.022-0.231-2.317,0.779-2.922c1.013-0.603,2.314-0.283,2.941,0.706c0.002,0,0.005-0.002,0.008-0.003l1.69,2.295
		c0.611,0.829,1.792,1.008,2.62,0.395c0.831-0.613,1.009-1.793,0.396-2.621l-1.694-2.299c0.002-0.002,0.004-0.004,0.006-0.006
		c-0.754-0.892-0.675-2.225,0.198-3.014c0.874-0.787,2.209-0.729,3.018,0.114c0.002-0.002,0.002-0.003,0.004-0.004l2.112,1.925
		c0.763,0.693,1.953,0.638,2.649-0.123l0.001-0.001c0.691-0.763,0.637-1.955-0.123-2.648l-2.114-1.925
		c0.002-0.002,0.004-0.004,0.004-0.005c-0.913-0.727-1.097-2.052-0.393-2.995c0.703-0.942,2.021-1.146,2.981-0.477
		c0-0.002,0.002-0.004,0.004-0.006l2.448,1.477c0.882,0.531,2.038,0.244,2.57-0.637c0.532-0.885,0.248-2.04-0.635-2.574L89.1,96.818
		c0.002-0.002,0.002-0.006,0.004-0.008c-1.044-0.532-1.484-1.799-0.978-2.863c0.508-1.064,1.765-1.521,2.838-1.048v-0.005
		l2.684,0.968c0.969,0.349,2.05-0.157,2.399-1.126c0.348-0.97-0.158-2.05-1.129-2.398l-2.677-0.967c0-0.004,0-0.007,0.002-0.011
		c-1.127-0.318-1.808-1.476-1.519-2.619c0.291-1.142,1.434-1.834,2.575-1.58c0.002-0.002,0.002-0.004,0.003-0.007l2.819,0.426
		c1.017,0.155,1.978-0.554,2.134-1.572c0.153-1.02-0.555-1.98-1.575-2.133l-2.818-0.427c0-0.002,0.003-0.006,0.001-0.009
		c-1.167-0.094-2.056-1.095-1.993-2.271c0.061-1.175,1.042-2.074,2.207-2.054V77.11l2.858-0.132c1.03-0.049,1.832-0.931,1.787-1.96
		h-0.002c-0.049-1.03-0.93-1.833-1.957-1.785l-2.858,0.133c-0.002-0.003-0.001-0.007-0.001-0.01
		c-1.16,0.129-2.224-0.678-2.393-1.839c-0.166-1.168,0.625-2.247,1.777-2.447c-0.002-0.002-0.002-0.003-0.002-0.005l2.767-0.687
		c1-0.248,1.618-1.27,1.371-2.269c-0.249-1.001-1.271-1.616-2.272-1.367l-2.77,0.685c-0.001-0.004-0.001-0.007-0.002-0.01
		c-1.116,0.357-2.317-0.226-2.711-1.336c-0.394-1.114,0.176-2.326,1.269-2.747c-0.002-0.002-0.002-0.003-0.001-0.004l2.574-1.21
		c0.934-0.438,1.337-1.56,0.9-2.493v-0.001c-0.439-0.934-1.562-1.338-2.493-0.899l-2.583,1.213
		c-0.001-0.003-0.003-0.004-0.005-0.008c-1.023,0.567-2.316,0.229-2.917-0.782c-0.604-1.014-0.283-2.313,0.704-2.939
		c-0.002-0.002-0.004-0.004-0.003-0.005l2.291-1.691c0.83-0.612,1.008-1.792,0.396-2.621s-1.793-1.007-2.622-0.396l-2.298,1.695
		c-0.002-0.003-0.004-0.006-0.006-0.008c-0.894,0.753-2.225,0.672-3.012-0.199c-0.787-0.875-0.729-2.208,0.113-3.015
		c-0.002-0.001-0.004-0.003-0.005-0.004l1.925-2.111c0.695-0.762,0.64-1.955-0.123-2.647v-0.001
		c-0.763-0.694-1.954-0.64-2.649,0.123l-1.925,2.111c-0.002-0.001-0.004-0.002-0.006-0.005c-0.729,0.913-2.049,1.093-2.99,0.392
		c-0.942-0.705-1.146-2.021-0.48-2.977c-0.002-0.001-0.002-0.003-0.003-0.003l1.475-2.448c0.531-0.883,0.245-2.041-0.639-2.572
		c-0.883-0.533-2.04-0.246-2.572,0.637l-1.47,2.44c-0.004,0-0.008-0.001-0.01-0.004c-0.534,1.042-1.799,1.48-2.862,0.975
		c-1.062-0.509-1.52-1.764-1.049-2.833c-0.002-0.001-0.004-0.001-0.005-0.002l0.967-2.684c0.352-0.97-0.155-2.049-1.124-2.398
		c-0.971-0.35-2.049,0.157-2.399,1.127l-0.969,2.679c-0.002-0.001-0.006-0.001-0.007-0.002c-0.321,1.126-1.478,1.802-2.617,1.515
		c-1.142-0.292-1.835-1.432-1.582-2.572c-0.002,0-0.004-0.001-0.006-0.001l0.426-2.821c0.154-1.02-0.555-1.979-1.575-2.132h-0.002
		c-1.019-0.154-1.977,0.554-2.132,1.573l-0.426,2.817h-0.007c-0.096,1.166-1.095,2.053-2.271,1.993
		c-1.173-0.063-2.074-1.043-2.053-2.208c-0.001,0.001-0.003,0-0.005,0.001l-0.135-2.857c-0.049-1.03-0.93-1.833-1.959-1.784
		l-0.002-0.001c-1.029,0.049-1.832,0.93-1.783,1.96l0.132,2.856c-0.002,0-0.004,0.001-0.007,0.001
		c0.129,1.158-0.677,2.219-1.84,2.388c-1.162,0.17-2.241-0.621-2.445-1.771c-0.002,0-0.004,0-0.008,0l-0.684-2.768
		c-0.248-1-1.271-1.615-2.271-1.367v0.001c-1.002,0.247-1.618,1.269-1.37,2.27l0.687,2.77c-0.002,0-0.004,0.001-0.006,0.002
		c0.354,1.111-0.228,2.313-1.337,2.707c-1.11,0.394-2.323-0.174-2.746-1.266c-0.002,0.002-0.005,0.002-0.007,0.003l-1.212-2.576
		c-0.438-0.934-1.561-1.339-2.493-0.9l-0.002,0.001c-0.933,0.438-1.338,1.561-0.9,2.493l1.213,2.584h-0.002
		c0.567,1.023,0.227,2.315-0.784,2.918c-1.01,0.603-2.312,0.284-2.938-0.704c-0.002,0.002-0.006,0.004-0.008,0.006l-1.693-2.294
		c-0.614-0.83-1.793-1.008-2.622-0.397c-0.828,0.612-1.006,1.792-0.396,2.621l1.698,2.3c-0.002,0.002-0.004,0.003-0.005,0.004
		c0.753,0.893,0.673,2.223-0.202,3.012c-0.872,0.786-2.204,0.727-3.014-0.114c-0.002,0.001-0.004,0.004-0.006,0.007l-2.111-1.924
		c-0.763-0.693-1.955-0.639-2.647,0.123c-0.695,0.763-0.64,1.954,0.121,2.648l2.111,1.925c0,0.001-0.002,0.002-0.002,0.003
		c0.914,0.727,1.094,2.049,0.392,2.993c-0.702,0.942-2.023,1.145-2.978,0.478l-0.006,0.008l-2.446-1.476
		c-0.885-0.531-2.041-0.245-2.574,0.638c-0.531,0.881-0.246,2.039,0.638,2.572l2.439,1.47c0,0.002-0.001,0.004-0.003,0.005
		c1.043,0.532,1.481,1.798,0.975,2.863c-0.506,1.063-1.763,1.52-2.834,1.047c-0.002,0.003-0.003,0.006-0.003,0.01l-2.686-0.968
		c-0.97-0.35-2.048,0.159-2.399,1.127c-0.349,0.97,0.157,2.049,1.128,2.399l2.68,0.965c-0.002,0.002-0.003,0.004-0.003,0.005
		c1.129,0.318,1.807,1.476,1.519,2.619c-0.288,1.142-1.431,1.833-2.574,1.58c0,0.004,0,0.007-0.002,0.01l-2.822-0.426
		c-1.021-0.152-1.98,0.556-2.132,1.574v0.001C7.289,71.319,8,72.28,9.018,72.435l2.816,0.424v0.005
		c1.167,0.093,2.057,1.094,1.997,2.271C13.769,76.308,12.787,77.209,11.621,77.187z M23.316,91.059l21.643-6.268l0.012-0.003
		c1.768,1.82,4.118,2.977,6.639,3.267l0.003,0.012l8.426,20.933C45.134,112.383,29.805,104.885,23.316,91.059z M45.826,76.898
		c0.142-3.88,3.403-6.909,7.281-6.768c3.88,0.142,6.908,3.4,6.767,7.28c-0.141,3.879-3.399,6.908-7.279,6.768
		C48.716,84.037,45.684,80.777,45.826,76.898z M84.735,70.152c3.294,14.913-4.271,30.206-18.152,36.619l-6.095-21.726l-0.005-0.012
		c1.822-1.767,2.979-4.118,3.267-6.64l0.012-0.005L84.735,70.152z M82.385,63.251L60.742,69.52l-0.011,0.003
		c-1.768-1.821-4.119-2.979-6.641-3.268l-0.005-0.013L45.66,45.309C60.573,41.923,75.896,49.423,82.385,63.251z M39.117,47.536
		l6.096,21.728l0.004,0.012c-1.821,1.769-2.978,4.119-3.267,6.64l-0.012,0.005l-20.971,8.239
		C17.673,69.244,25.242,53.95,39.117,47.536z"/>
	<path fill="#3570FF" d="M51.229,129.977c-1.285-0.039-2.557-0.123-3.815-0.253l0,0l0.202-1.974
		c1.211,0.123,2.437,0.205,3.669,0.243l0,0c0.535,0.016,1.067,0.023,1.595,0.022l0,0c0.19,0,0.379,0,0.568-0.002l0,0l0.022,1.983
		C53.273,130,53.076,130,52.88,130l0,0C52.329,130,51.78,129.991,51.229,129.977L51.229,129.977z M56.364,127.897
		c1.962-0.134,3.893-0.379,5.791-0.729l0,0l0.359,1.953c-1.969,0.364-3.978,0.619-6.018,0.757l0,0L56.364,127.897L56.364,127.897z
		 M38.485,128.024l0.539-1.91c1.857,0.522,3.759,0.944,5.698,1.256l0,0l-0.315,1.959C42.392,129.007,40.416,128.568,38.485,128.024
		L38.485,128.024z M65.007,126.555c1.902-0.466,3.763-1.04,5.577-1.718l0,0l0.69,1.862c-1.884,0.7-3.819,1.298-5.795,1.783l0,0
		L65.007,126.555L65.007,126.555z M29.979,124.812l0.859-1.789c1.746,0.838,3.548,1.58,5.4,2.22l0,0l-0.647,1.877
		C33.667,126.456,31.795,125.684,29.979,124.812L29.979,124.812z M73.285,123.744c1.787-0.786,3.521-1.673,5.196-2.651l0,0
		l1.002,1.713c-1.739,1.018-3.543,1.938-5.401,2.754l0,0L73.285,123.744L73.285,123.744z M22.153,120.18l1.156-1.614
		c1.579,1.129,3.226,2.17,4.935,3.115l0,0v0.002l-0.962,1.734C25.506,122.434,23.793,121.353,22.153,120.18L22.153,120.18z
		 M80.955,119.549c1.625-1.078,3.182-2.245,4.669-3.501l0,0v0.002l1.279,1.516c-1.543,1.302-3.163,2.518-4.85,3.637l0,0
		L80.955,119.549L80.955,119.549z M15.238,114.277l1.413-1.392c1.365,1.383,2.811,2.691,4.328,3.913l0,0l-1.243,1.546
		C18.159,117.074,16.658,115.717,15.238,114.277L15.238,114.277z M20.979,116.799L20.979,116.799L20.979,116.799
		C20.98,116.799,20.979,116.799,20.979,116.799L20.979,116.799z M87.801,114.104c1.413-1.338,2.751-2.755,4.004-4.247l0,0
		l1.52,1.277c-1.302,1.551-2.691,3.022-4.16,4.412l0,0L87.801,114.104L87.801,114.104z M9.431,107.288l1.629-1.134
		c1.112,1.6,2.315,3.134,3.601,4.595l0,0l-0.002-0.002l-1.489,1.312C11.835,110.544,10.587,108.949,9.431,107.288L9.431,107.288z
		 M93.621,107.569c1.164-1.557,2.239-3.181,3.221-4.867l0,0l1.715,0.997c-1.021,1.753-2.137,3.44-3.345,5.058l0,0L93.621,107.569
		L93.621,107.569z M4.905,99.411l1.799-0.836c0.823,1.769,1.746,3.484,2.76,5.139l0,0l-1.69,1.036
		C6.719,103.033,5.76,101.25,4.905,99.411L4.905,99.411z M98.238,100.133c0.876-1.727,1.657-3.514,2.335-5.35l0,0l1.862,0.688
		c-0.704,1.908-1.516,3.763-2.427,5.561l0,0L98.238,100.133L98.238,100.133z M1.799,90.873l1.917-0.515
		c0.508,1.891,1.121,3.739,1.836,5.539l0,0l-1.847,0.731C2.966,94.76,2.326,92.837,1.799,90.873L1.799,90.873z M100.572,94.782
		h0.002C100.574,94.782,100.573,94.782,100.572,94.782L100.572,94.782L100.572,94.782L100.572,94.782z M101.505,92.017
		c0.563-1.846,1.021-3.739,1.375-5.67l0,0l1.954,0.356c-0.367,2.007-0.847,3.974-1.432,5.893l0,0L101.505,92.017L101.505,92.017z
		 M0.212,81.923l1.976-0.176c0.175,1.957,0.463,3.884,0.854,5.771l0,0l-1.944,0.403C0.691,85.958,0.393,83.957,0.212,81.923
		L0.212,81.923z M103.322,83.461c0.192-1.561,0.315-3.142,0.365-4.74l0,0c0.009-0.363,0.017-0.726,0.021-1.083l0,0l1.984,0.021
		c-0.004,0.372-0.013,0.742-0.02,1.119l0,0c-0.052,1.663-0.18,3.307-0.382,4.929l0,0L103.322,83.461L103.322,83.461z M0,77.183
		c0-0.549,0.008-1.104,0.029-1.655l0,0l1.982,0.066c-0.019,0.528-0.027,1.057-0.025,1.589l0,0c-0.002,0.552,0.008,1.103,0.025,1.649
		l0,0l-1.982,0.064C0.01,78.326,0,77.755,0,77.183L0,77.183z M103.047,68.914l1.961-0.318c0.32,1.976,0.534,3.988,0.627,6.028l0,0
		l-1.981,0.094C103.562,72.753,103.359,70.815,103.047,68.914L103.047,68.914z M100.901,60.438l1.873-0.654
		c0.662,1.9,1.218,3.845,1.66,5.833l0,0l-1.938,0.431C102.071,64.137,101.537,62.264,100.901,60.438L100.901,60.438z M97.325,52.462
		l1.735-0.964c0.979,1.76,1.861,3.583,2.637,5.458l0,0l-1.832,0.759C99.116,55.909,98.269,54.157,97.325,52.462L97.325,52.462z
		 M92.434,45.213l1.544-1.246c1.268,1.571,2.448,3.214,3.534,4.925l0,0l-1.679,1.063C94.792,48.309,93.656,46.725,92.434,45.213
		L92.434,45.213z M86.376,38.902l1.31-1.493c1.52,1.336,2.963,2.756,4.321,4.252l0,0l-1.472,1.334
		C89.229,41.555,87.839,40.187,86.376,38.902L86.376,38.902z M79.326,33.716l1.037-1.695c1.729,1.057,3.395,2.211,4.985,3.453l0,0
		l-1.222,1.565C82.596,35.842,80.994,34.733,79.326,33.716L79.326,33.716z M71.494,29.814l0.726-1.847
		c1.894,0.746,3.73,1.596,5.508,2.546l0,0l-0.937,1.75C75.083,31.351,73.313,30.532,71.494,29.814L71.494,29.814z M63.104,27.324
		l0.396-1.943c1.999,0.409,3.954,0.929,5.863,1.557l0,0l-0.621,1.884C66.908,28.219,65.026,27.719,63.104,27.324L63.104,27.324z
		 M63.103,27.324L63.103,27.324L63.103,27.324v0.002V27.324L63.103,27.324z M54.413,26.314h0.002l0.059-1.985
		c2.045,0.064,4.06,0.241,6.041,0.529l0,0l-0.288,1.964C58.322,26.546,56.382,26.374,54.413,26.314L54.413,26.314z"/>
</g>
</svg>
