<?xml version="1.0" encoding="utf-8"?>
<!-- Generator: Adobe Illustrator 13.0.0, SVG Export Plug-In . SVG Version: 6.00 Build 14948)  -->
<!DOCTYPE svg [
	<!ENTITY ns_flows "http://ns.adobe.com/Flows/1.0/">
	<!ENTITY ns_extend "http://ns.adobe.com/Extensibility/1.0/">
	<!ENTITY ns_ai "http://ns.adobe.com/AdobeIllustrator/10.0/">
	<!ENTITY ns_graphs "http://ns.adobe.com/Graphs/1.0/">
]>
<svg version="1.2" baseProfile="tiny" id="Layer_1" xmlns:x="&ns_extend;" xmlns:i="&ns_ai;" xmlns:graph="&ns_graphs;"
	 xmlns="http://www.w3.org/2000/svg" xmlns:xlink="http://www.w3.org/1999/xlink" xmlns:a="http://ns.adobe.com/AdobeSVGViewerExtensions/3.0/"
	 x="0px" y="0px" width="180px" height="80px" viewBox="0 0 180 80" xml:space="preserve">
<path fill="#F0E3E3" d="M25.612,30.597c-1.082,0.456-2.188,0.79-3.295,0.984c-0.436,0.077-0.87,0.132-1.304,0.168
	c-0.075,0.006-0.149,0.002-0.225,0.008c-0.354,0.023-0.709,0.04-1.061,0.035c-0.149-0.002-0.295-0.021-0.443-0.027
	c-0.276-0.012-0.551-0.022-0.824-0.055c-0.178-0.02-0.353-0.059-0.529-0.086c-0.237-0.038-0.476-0.07-0.708-0.121
	c-0.19-0.042-0.375-0.104-0.562-0.154c-0.214-0.059-0.43-0.111-0.639-0.183c-0.191-0.066-0.375-0.149-0.563-0.225
	c-0.197-0.08-0.398-0.151-0.591-0.243c-0.187-0.088-0.365-0.195-0.546-0.294c-0.184-0.101-0.371-0.193-0.549-0.305
	c-0.179-0.112-0.347-0.242-0.521-0.365c-0.147-0.105-0.302-0.2-0.445-0.313L1.547,42.666l24.064-4.243V30.597z M0,18.875v22.515
	L11.256,28.15L0,18.875z M13.579,26.965l0.63,0.519c1.202,0.99,2.611,1.606,4.114,1.894c1.284,0.245,2.635,0.253,3.992,0.014
	c1.013-0.179,2.027-0.488,3.016-0.925c0.094-0.042,0.188-0.064,0.281-0.081V12.812L1.547,17.055l12.026,9.907
	C13.575,26.964,13.578,26.964,13.579,26.965z M22.636,43.257c-2.893,0.51-5.398,2.014-7.521,4.509v-2.769l-6.923,1.222V80
	l6.923-1.221v-12.23c1.845,2.105,4.283,2.891,7.315,2.356c3.029-0.534,5.676-2.23,7.938-5.091c2.261-2.859,3.391-6.121,3.391-9.782
	c0-3.66-1.129-6.499-3.391-8.517C28.105,43.499,25.528,42.747,22.636,43.257z M24.989,60.632c-1.2,1.488-2.6,2.374-4.199,2.655
	c-1.6,0.281-2.962-0.116-4.085-1.195c-1.123-1.078-1.684-2.625-1.684-4.641s0.562-3.791,1.684-5.327
	c1.123-1.537,2.499-2.447,4.131-2.735c1.63-0.287,3.03,0.143,4.2,1.289c1.168,1.148,1.752,2.723,1.752,4.722
	C26.789,57.399,26.189,59.144,24.989,60.632z M46.887,40.088c-1.338,0.943-2.454,2.001-3.346,3.174v-3.276l-6.923,1.221v24.828
	l6.923-1.222V54.061c0-2.399,0.507-4.419,1.522-6.06c1.016-1.64,2.553-2.642,4.615-3.006l1.339-0.235l-0.047-6.5
	C49.587,38.535,48.225,39.144,46.887,40.088z M74,37.914c-2.492-2.037-5.624-2.723-9.393-2.058s-6.898,2.455-9.391,5.371
	c-2.492,2.915-3.739,6.175-3.739,9.773c0,3.6,1.247,6.411,3.739,8.432c2.492,2.023,5.622,2.701,9.391,2.036s6.9-2.446,9.393-5.348
	c2.492-2.899,3.737-6.151,3.737-9.751C77.736,42.771,76.491,39.951,74,37.914z M69.038,52.864c-1.154,1.48-2.63,2.379-4.431,2.696
	c-1.799,0.318-3.275-0.061-4.43-1.133c-1.154-1.074-1.731-2.626-1.731-4.656c0-2.031,0.577-3.793,1.731-5.289
	c1.154-1.496,2.63-2.403,4.43-2.721c1.801-0.317,3.277,0.069,4.431,1.158c1.154,1.089,1.73,2.648,1.73,4.679
	S70.192,51.385,69.038,52.864z M116.962,29.232c-1.784-1.424-4.138-1.878-7.061-1.363c-1.631,0.288-3.254,0.988-4.867,2.104
	c-1.616,1.116-2.901,2.512-3.854,4.187c-0.646-1.208-1.607-2.163-2.884-2.86c-1.278-0.698-2.7-0.908-4.27-0.632
	c-2.461,0.435-4.646,1.896-6.553,4.386v-2.815l-6.922,1.221v24.829l6.922-1.222V43.684c0-1.939,0.516-3.498,1.546-4.679
	c1.031-1.183,2.215-1.892,3.553-2.127c1.339-0.236,2.308,0.055,2.908,0.872c0.6,0.816,0.9,2.211,0.9,4.179v13.567l6.968-1.229
	V40.885c0-1.939,0.508-3.496,1.522-4.676c1.016-1.179,2.216-1.891,3.601-2.135c2.798-0.494,4.199,1.168,4.199,4.982v13.568
	l6.969-1.229V36.304C119.64,33.013,118.748,30.655,116.962,29.232z M123.607,50.695l6.924-1.221V24.646l-6.924,1.221V50.695z
	 M127.068,15.151c-1.139,0.201-2.098,0.762-2.883,1.686c-0.785,0.922-1.178,1.953-1.178,3.091c0,1.138,0.393,2.031,1.178,2.676
	c0.785,0.647,1.744,0.869,2.883,0.668c1.139-0.201,2.101-0.763,2.886-1.686c0.784-0.921,1.177-1.953,1.177-3.091
	s-0.393-2.031-1.177-2.676C129.168,15.172,128.207,14.95,127.068,15.151z M150.88,32.918c-0.922-0.391-1.715-0.657-2.376-0.804
	c-0.661-0.144-1.776-0.325-3.346-0.541c-1.568-0.215-2.692-0.447-3.368-0.697c-0.678-0.251-1.016-0.698-1.016-1.344
	c0-1.169,1.068-1.943,3.207-2.32s4.284-0.018,6.438,1.08l2.584-5.07c-2.922-1.454-5.846-1.923-8.768-1.408s-5.308,1.658-7.152,3.43
	c-1.847,1.771-2.77,3.804-2.77,6.095c0,2.293,0.938,3.858,2.814,4.695c0.924,0.424,1.746,0.724,2.469,0.903
	c0.723,0.182,1.771,0.366,3.14,0.555c1.368,0.189,2.413,0.467,3.138,0.832c0.722,0.364,1.084,0.838,1.084,1.423
	c0,0.585-0.261,1.101-0.783,1.546c-0.525,0.447-1.231,0.749-2.123,0.905c-2.924,0.516-5.677,0.001-8.262-1.544l-3.046,4.876
	c1.601,1.01,3.399,1.67,5.399,1.979s3.923,0.301,5.77-0.025c2.769-0.488,5.053-1.629,6.852-3.424c1.801-1.794,2.7-3.915,2.7-6.358
	C153.465,35.255,152.603,33.662,150.88,32.918z M180,27.091c0-3.599-1.192-6.218-3.576-7.86c-2.386-1.642-5.284-2.16-8.7-1.558
	c-3.414,0.602-6.375,2.276-8.883,5.027c-2.508,2.749-3.762,6.079-3.762,9.985c0,3.907,1.23,6.805,3.693,8.695
	c2.461,1.889,5.574,2.5,9.345,1.836c3.767-0.665,7.053-2.566,9.853-5.707l-3.877-3.516c-1.568,1.908-3.568,3.076-6,3.505
	c-1.507,0.266-2.861,0.074-4.061-0.577s-1.908-1.633-2.123-2.949L180,30.784V27.091z M162.095,29.003
	c0.184-1.447,0.845-2.688,1.983-3.719c1.138-1.032,2.392-1.667,3.761-1.909c1.37-0.242,2.531-0.046,3.486,0.585
	c0.953,0.632,1.506,1.672,1.66,3.123L162.095,29.003z M87.474,23.446c1.846,2.105,4.284,2.891,7.315,2.356
	c3.03-0.534,5.676-2.23,7.938-5.092c2.261-2.858,3.393-6.12,3.393-9.781c0-3.661-1.132-6.499-3.393-8.517
	c-2.262-2.016-4.839-2.768-7.729-2.259c-2.893,0.51-5.4,2.014-7.523,4.51V1.895l-6.922,1.221v27.667l6.922-1.221V23.446z
	 M89.066,9.022c1.123-1.538,2.5-2.449,4.13-2.736c1.63-0.288,3.029,0.143,4.199,1.29c1.17,1.147,1.754,2.721,1.754,4.72
	c0,2-0.6,3.745-1.8,5.233c-1.2,1.488-2.601,2.373-4.2,2.655c-1.6,0.282-2.961-0.116-4.083-1.195
	c-1.124-1.078-1.684-2.625-1.684-4.641C87.382,12.334,87.942,10.558,89.066,9.022z M74.298,6.895
	c-2.384-1.641-5.283-2.159-8.698-1.557c-3.415,0.602-6.377,2.277-8.883,5.027c-2.509,2.749-3.762,6.079-3.762,9.985
	c0,3.907,1.229,6.805,3.692,8.694c2.46,1.889,5.576,2.501,9.345,1.836c3.769-0.664,7.053-2.565,9.853-5.706l-3.875-3.516
	c-1.57,1.908-3.57,3.076-6,3.504c-1.507,0.266-2.861,0.074-4.061-0.576c-1.201-0.65-1.909-1.632-2.123-2.948l18.089-3.189v-3.692
	C77.875,11.156,76.682,8.537,74.298,6.895z M59.969,16.668c0.186-1.448,0.847-2.689,1.985-3.72c1.138-1.031,2.392-1.668,3.761-1.908
	c1.368-0.242,2.531-0.047,3.484,0.584c0.953,0.633,1.507,1.672,1.661,3.123L59.969,16.668z M32.211,33.306
	c2.569,1.901,5.715,2.523,9.438,1.866c3.722-0.656,7.183-2.927,10.382-6.813l-4.106-3.892c-1.847,2.632-3.922,4.152-6.231,4.56
	c-1.754,0.309-3.284-0.005-4.592-0.944c-1.308-0.938-1.96-2.461-1.96-4.568c0-2.106,0.652-3.868,1.96-5.284
	c1.308-1.414,2.87-2.283,4.685-2.602c1.139-0.201,2.284-0.142,3.438,0.179c1.154,0.319,2.13,0.885,2.931,1.697l3.599-5.34
	c-1.385-1.202-2.992-2.012-4.823-2.426c-1.831-0.416-3.638-0.466-5.421-0.152c-3.57,0.63-6.654,2.366-9.253,5.208
	c-2.6,2.841-3.899,6.165-3.899,9.962C28.358,28.556,29.643,31.405,32.211,33.306z"/>
</svg>
