<?xml version="1.0" encoding="utf-8"?>
<!-- Generator: Adobe Illustrator 13.0.0, SVG Export Plug-In . SVG Version: 6.00 Build 14948)  -->
<!DOCTYPE svg [
	<!ENTITY ns_flows "http://ns.adobe.com/Flows/1.0/">
	<!ENTITY ns_extend "http://ns.adobe.com/Extensibility/1.0/">
	<!ENTITY ns_ai "http://ns.adobe.com/AdobeIllustrator/10.0/">
	<!ENTITY ns_graphs "http://ns.adobe.com/Graphs/1.0/">
]>
<svg version="1.2" baseProfile="tiny" id="Layer_1" xmlns:x="&ns_extend;" xmlns:i="&ns_ai;" xmlns:graph="&ns_graphs;"
	 xmlns="http://www.w3.org/2000/svg" xmlns:xlink="http://www.w3.org/1999/xlink" xmlns:a="http://ns.adobe.com/AdobeSVGViewerExtensions/3.0/"
	 x="0px" y="0px" width="130px" height="129.434px" viewBox="0 0 130 129.434" xml:space="preserve">
<path fill="#F0E3E3" d="M65.446,82.616L55.292,72.461l-5.803,5.805l10.154,10.152L65.446,82.616z M49.489,52.156L39.336,42.004
	l-5.801,5.801l10.152,10.153L49.489,52.156z M37.255,39.923c-0.574,1.035-1.12,2-1.629,2.89l2.26-2.259L37.255,39.923z
	 M77.05,94.221L66.896,84.065l-5.803,5.807l10.154,10.15L77.05,94.221z M98.808,72.463L88.653,62.311l-5.803,5.8l10.154,10.155
	L98.808,72.463z M91.554,79.717L81.399,69.563l-5.801,5.801l10.154,10.154L91.554,79.717z M62.543,65.21l-5.802,5.802l10.154,10.154
	l5.801-5.803L62.543,65.21z M80.673,67.388c0.001-0.001,0.001-0.001,0.002-0.002s0.002-0.001,0.002-0.001l6.524-6.526L76.329,49.987
	c-0.002-0.003-0.004-0.004-0.006-0.005c-0.002-0.002-0.003-0.005-0.004-0.007L65.446,39.103L52.392,52.156l21.757,21.756
	L80.673,67.388z M37.886,66.663l10.152,10.152l5.803-5.803L43.688,60.86L37.886,66.663z M30.354,44.625
	c-1.687-2.901-4.142-7.248-6.471-11.826l-2.677,2.677c0,0,0,0,0,0L30.354,44.625z M81.136,43.717l-9.643-10.663l-4.597,4.598
	L77.05,47.806L81.136,43.717z M48.039,33.3l10.153,10.153l5.802-5.802L53.843,27.498L48.039,33.3z M82.589,42.266l3.482-3.483
	L75.919,28.63l-2.973,2.973L82.589,42.266z M55.292,69.561l5.8-5.801L50.94,53.607l-5.801,5.802L55.292,69.561z M45.137,33.301
	l-2.892-2.892c-1.283,2.627-2.657,5.247-3.961,7.641l1.052,1.052L45.137,33.301z M40.788,40.553L50.94,50.705l5.8-5.801
	L46.588,34.751L40.788,40.553z M52.392,26.046l-5.839-5.838c-0.8,2.47-2,5.32-3.369,8.238l3.403,3.403L52.392,26.046z
	 M55.293,26.047L65.445,36.2l4.669-4.67l-9.641-10.662L55.293,26.047z M71.973,102.2c-0.001,0-0.003,0-0.005,0.002l-7.247,7.248
	l12.286,12.287l0.422-24.996l-5.453,5.453C71.974,102.196,71.973,102.198,71.973,102.2z M74.147,76.815l-5.801,5.801L78.5,92.768
	l5.801-5.801L74.147,76.815z M64.721,109.452v-0.002H64.72L64.721,109.452z M59.643,91.321l-6.526,6.525L63.27,108l6.526-6.527
	L59.643,91.321z M79.95,94.219l13.295,13.295l5.801-5.801L85.751,88.418L79.95,94.219z M87.522,40.233L87.522,40.233l-3.557,3.556
	l17.487,19.339c0.007,0.007,0.008,0.018,0.017,0.025c2.35,2.63,2.426,6.576,0.212,9.283l13.321,13.322l9.021-9.023L87.522,40.233z
	 M93.729,80.44c-0.002,0.002-0.002,0.002-0.004,0.004l-6.523,6.523l13.295,13.295l13.055-13.055l-13.295-13.295L93.729,80.44z
	 M79.059,121.702l12.736-12.736L79.483,96.653L79.059,121.702z M48.038,79.715l-6.526,6.525l0,0.002l10.154,10.154l6.526-6.527
	L48.038,79.715z M60.548,17.891l2.316-2.317L51.986,4.696l-1.777,1.778c0.012,0.012,0.029,0.017,0.041,0.03L60.548,17.891z
	 M71.567,30.078l2.899-2.899L64.315,17.025l-0.001,0.002l-2.389,2.388L71.567,30.078z M99.749,64.307
	c-0.01-0.009-0.012-0.021-0.02-0.03l-6.195-6.85l-3.432,3.432l10.102,10.101C101.704,68.961,101.563,66.127,99.749,64.307z
	 M47.194,17.949l6.646,6.647l5.255-5.254L48.763,7.918l-2.082,2.083c0.577,1.601,0.908,3.319,0.908,5.119
	C47.589,15.923,47.447,16.88,47.194,17.949z M78.5,49.255l10.152,10.154l3.505-3.504l-9.643-10.663L78.5,49.255z M36.436,68.114
	l-6.526,6.525l10.151,10.152h0.001l6.525-6.527L36.436,68.114z M29.626,46.797l-9.87-9.869c0-0.001,0-0.001,0-0.001L5.976,50.706
	l10.878,10.878l13.779-13.779L29.626,46.797z M29.909,74.641l0-0.002h-0.001L29.909,74.641z M37.356,54.527l-5.271-5.271
	l-13.78,13.779l10.152,10.153l13.781-13.78L37.356,54.527z"/>
<path fill="#30D9BF" d="M32.467,0c-8.35,0-15.119,6.77-15.12,15.12c0,8.352,15.121,33.069,15.121,33.069S47.589,23.47,47.589,15.12
	C47.589,6.771,40.818,0,32.467,0z M32.467,20.875c-3.032,0-5.49-2.458-5.489-5.489c0.001-3.034,2.458-5.491,5.49-5.491
	c3.033,0,5.489,2.458,5.49,5.49C37.957,18.417,35.5,20.874,32.467,20.875z"/>
<path fill="#3570FF" d="M33.499,47.804l30.797-30.796l-1.415-1.416L35.579,42.895c-1.821,3.185-3.111,5.294-3.111,5.294
	s-0.817-1.337-2.064-3.48l-9.216-9.216l-1.416,1.416l10.896,10.896L16.872,61.603l1.414,1.414l13.798-13.797l59.728,59.728
	l1.416-1.414L33.499,47.804z"/>
<path fill="#3570FF" d="M55.823,108.342l4.244,4.241l1.413-1.413l-4.242-4.244L55.823,108.342z M49.461,101.978l4.242,4.242
	l1.413-1.414l-4.242-4.242L49.461,101.978z M43.097,95.614l4.242,4.242l1.414-1.414l-4.242-4.241L43.097,95.614z M36.732,89.25
	l4.242,4.244l1.416-1.415l-4.244-4.244L36.732,89.25z M30.369,82.885l4.242,4.244l1.416-1.415l-4.244-4.244L30.369,82.885z
	 M70.53,15.748l-4.242-4.242l-1.413,1.416l4.24,4.242L70.53,15.748z M76.895,22.112l-4.242-4.242l-1.415,1.416l4.244,4.242
	L76.895,22.112z M79.157,126.056l-1.396,1.395l-1.433-1.432l-1.413,1.415l2,2h1.695l1.962-1.963l-1.413-1.415H79.157z
	 M68.551,121.07l4.242,4.242l1.416-1.415l-4.242-4.242L68.551,121.07z M7.815,44.703L6.4,43.29l-4.242,4.242l1.414,1.414
	L7.815,44.703z M18.488,34.03l-1.414-1.416l-2.188,2.188l1.413,1.416L18.488,34.03z M4.912,57.431l4.244,4.242l1.413-1.413
	l-4.242-4.244L4.912,57.431z M62.187,114.706l4.242,4.242l1.416-1.415l-4.242-4.242L62.187,114.706z M17.64,70.159l4.242,4.242
	l1.416-1.415l-4.242-4.242L17.64,70.159z M14.179,38.338l-1.415-1.413l-4.242,4.242l1.413,1.415L14.179,38.338z M11.276,63.795
	l4.242,4.242l1.416-1.415l-4.242-4.242L11.276,63.795z M24.004,76.523l4.242,4.242l1.415-1.415l-4.242-4.242L24.004,76.523z
	 M94.006,111.208l1.415,1.414l4.244-4.242l-1.415-1.416L94.006,111.208z M89.623,34.84l-4.242-4.242l-1.416,1.414l4.242,4.242
	L89.623,34.84z M87.644,117.57l1.415,1.416l4.242-4.242l-1.415-1.416L87.644,117.57z M95.986,41.205l-4.244-4.242l-1.413,1.414
	l4.242,4.242L95.986,41.205z M81.279,123.934l1.415,1.415l4.242-4.241l-1.415-1.416L81.279,123.934z M1.451,51.067l-1.416-1.414
	L0,49.689v2.829l2.79,2.792l1.415-1.414l-2.792-2.793L1.451,51.067z M83.259,28.476l-4.242-4.242l-1.416,1.413l4.242,4.244
	L83.259,28.476z M129.928,75.145l-1.413,1.415l0.068,0.068l-2.757,2.759l1.416,1.415L130,78.043v-2.826L129.928,75.145z
	 M113.098,92.116l1.416,1.415l4.242-4.244l-1.414-1.415L113.098,92.116z M119.462,85.751l1.416,1.415l4.242-4.244l-1.414-1.415
	L119.462,85.751z M121.443,66.659l-4.244-4.242l-1.415,1.416l4.244,4.242L121.443,66.659z M115.079,60.297l-4.242-4.244
	l-1.415,1.416l4.242,4.242L115.079,60.297z M127.806,73.023l-4.242-4.242l-1.415,1.416l4.244,4.241L127.806,73.023z M100.37,104.844
	l1.415,1.413l4.244-4.242l-1.415-1.415L100.37,104.844z M106.734,98.478l1.415,1.415l4.242-4.242l-1.413-1.415L106.734,98.478z
	 M102.351,47.569l-4.242-4.244l-1.415,1.415l4.242,4.242L102.351,47.569z M108.715,53.933l-4.242-4.244l-1.415,1.415l4.242,4.242
	L108.715,53.933z"/>
</svg>
