<?xml version="1.0" encoding="utf-8"?>
<!-- Generator: Adobe Illustrator 13.0.0, SVG Export Plug-In . SVG Version: 6.00 Build 14948)  -->
<!DOCTYPE svg [
	<!ENTITY ns_flows "http://ns.adobe.com/Flows/1.0/">
	<!ENTITY ns_extend "http://ns.adobe.com/Extensibility/1.0/">
	<!ENTITY ns_ai "http://ns.adobe.com/AdobeIllustrator/10.0/">
	<!ENTITY ns_graphs "http://ns.adobe.com/Graphs/1.0/">
]>
<svg version="1.2" baseProfile="tiny" id="Layer_1" xmlns:x="&ns_extend;" xmlns:i="&ns_ai;" xmlns:graph="&ns_graphs;"
	 xmlns="http://www.w3.org/2000/svg" xmlns:xlink="http://www.w3.org/1999/xlink" xmlns:a="http://ns.adobe.com/AdobeSVGViewerExtensions/3.0/"
	 x="0px" y="0px" width="100.454px" height="130px" viewBox="0 0 100.454 130" xml:space="preserve">
<circle fill="#F0E3E3" cx="50.227" cy="79.772" r="41.856"/>
<path fill="#3570FF" d="M5.665,98.329l-1.818,0.757c0.621,1.49,1.313,2.941,2.067,4.353l1.737-0.929
	C6.924,101.152,6.261,99.757,5.665,98.329z M2.132,83.769l-1.963,0.16c0.132,1.616,0.34,3.21,0.623,4.777l1.938-0.349
	C2.459,86.85,2.259,85.319,2.132,83.769z M3.327,91.189l-1.913,0.466c0.38,1.568,0.835,3.112,1.359,4.622l1.861-0.647
	C4.13,94.18,3.694,92.698,3.327,91.189z M2.73,88.357L2.73,88.357c0,0,0,0.001,0,0.002V88.357z M17.186,41.941
	c-1.21,1.059-2.369,2.173-3.471,3.34l1.431,1.354c1.061-1.123,2.176-2.194,3.339-3.21L17.186,41.941z M17.545,117.914
	c1.22,1.045,2.488,2.033,3.804,2.96l1.132-1.612h0.002c-1.266-0.889-2.484-1.839-3.655-2.843L17.545,117.914z M7.412,106.049
	c0.845,1.372,1.751,2.7,2.718,3.98l1.571-1.19c-0.928-1.229-1.799-2.505-2.609-3.822L7.412,106.049z M12.019,112.376
	c1.042,1.222,2.145,2.394,3.3,3.51l1.37-1.416c-1.11-1.073-2.169-2.2-3.171-3.373L12.019,112.376z M11.702,108.841v-0.002h-0.001
	C11.702,108.84,11.702,108.84,11.702,108.841z M97.513,70.098c0.306,1.5,0.543,3.026,0.704,4.576l1.959-0.207
	c-0.169-1.61-0.414-3.2-0.732-4.763l-1.929,0.394H97.513z M94.35,60.198l1.798-0.798c-0.653-1.475-1.378-2.91-2.165-4.306
	l-1.715,0.97C93.025,57.402,93.721,58.784,94.35,60.198z M31.16,35.428l-0.78-1.81c-1.482,0.639-2.925,1.345-4.329,2.116L27,37.461
	C28.349,36.72,29.737,36.04,31.16,35.428z M92.422,52.518c-0.873-1.351-1.81-2.657-2.808-3.914l-1.543,1.222
	c0.958,1.208,1.859,2.465,2.698,3.764L92.422,52.518z M96.851,67.281l1.903-0.51c-0.417-1.56-0.908-3.092-1.468-4.59l-1.845,0.692
	C95.98,64.31,96.452,65.781,96.851,67.281z M23.866,122.533c1.363,0.842,2.771,1.622,4.216,2.332l0.869-1.767
	c-1.388-0.683-2.741-1.432-4.051-2.241L23.866,122.533z M8.851,54.92l-1.688-1.016c-0.827,1.373-1.59,2.79-2.284,4.245l1.777,0.849
	C7.325,57.6,8.057,56.239,8.851,54.92z M5.488,61.649l-1.827-0.741c-0.6,1.483-1.132,3-1.592,4.549l1.888,0.562
	C4.398,64.531,4.91,63.074,5.488,61.649z M24.51,38.93l-1.051-1.665c-1.361,0.859-2.679,1.782-3.946,2.763l1.204,1.557
	C21.937,40.642,23.202,39.754,24.51,38.93z M3.218,68.814L1.3,68.369c-0.362,1.553-0.649,3.137-0.864,4.74l1.953,0.26
	C2.594,71.826,2.872,70.308,3.218,68.814z M10.418,52.485c0.875-1.275,1.81-2.506,2.802-3.688l-1.51-1.266
	c-1.031,1.231-2.004,2.51-2.915,3.837l1.623,1.114V52.485z M1.969,79.771c0-1.185,0.043-2.359,0.126-3.521L0.13,76.105
	C0.042,77.316,0,78.539,0,79.771c0,0.387,0.004,0.77,0.012,1.151l1.969-0.044C1.973,80.511,1.969,80.141,1.969,79.771z
	 M93.306,101.538l0.002,0.001c0,0,0,0,0-0.001H93.306z M84.294,42.865l-1.337,1.449l0.002-0.002
	c1.133,1.049,2.218,2.151,3.247,3.302l1.468-1.314C86.603,45.102,85.476,43.957,84.294,42.865z M81.128,116.837l1.264,1.513
	c1.235-1.028,2.419-2.119,3.547-3.262l-1.4-1.384C83.454,114.802,82.316,115.847,81.128,116.837z M75.002,121.192l1.011,1.689
	c1.383-0.826,2.72-1.721,4.013-2.674l-1.173-1.584C77.615,119.539,76.33,120.397,75.002,121.192z M89.397,107.963
	c-0.904,1.253-1.866,2.464-2.885,3.623l1.482,1.298c1.057-1.206,2.06-2.464,3-3.77l-1.596-1.151H89.397z M78.152,38.018
	l-1.097,1.635v0.002c1.284,0.859,2.525,1.781,3.719,2.757l1.249-1.524C80.781,39.871,79.488,38.914,78.152,38.018z M97.905,87.267
	c-0.238,1.539-0.551,3.05-0.933,4.535l1.908,0.49c0.396-1.546,0.723-3.121,0.971-4.721l-1.944-0.302L97.905,87.267z M30.829,126.116
	c1.476,0.618,2.986,1.168,4.528,1.646l0.584-1.882c-1.481-0.459-2.935-0.986-4.351-1.581L30.829,126.116z M71.33,34.179L70.5,35.967
	c1.403,0.65,2.773,1.369,4.102,2.146l0.996-1.698C74.216,35.604,72.791,34.859,71.33,34.179z M91.021,105.563l1.663,1.055
	c0.859-1.354,1.653-2.753,2.382-4.189l-1.758-0.89C92.608,102.922,91.845,104.263,91.021,105.563z M94.538,98.915l1.808,0.782
	c0.635-1.468,1.203-2.975,1.698-4.512l-1.874-0.604C95.693,96.06,95.149,97.504,94.538,98.915z M100.403,77.47l-1.969,0.089
	c0.032,0.733,0.049,1.472,0.049,2.212c0,1.563-0.072,3.104-0.219,4.625l1.963,0.188c0.149-1.584,0.227-3.187,0.227-4.813
	C100.454,78.999,100.435,78.232,100.403,77.47z M38.262,128.566c1.551,0.377,3.128,0.683,4.73,0.915l0.281-1.948
	c-1.539-0.223-3.055-0.519-4.545-0.882L38.262,128.566z M58.265,127.362c-1.508,0.255-3.043,0.437-4.596,0.546l0.138,1.964
	c1.617-0.112,3.214-0.305,4.785-0.567l-0.325-1.942H58.265z M50.227,128.029c-1.374,0-2.733-0.058-4.078-0.17l-0.163,1.962
	c1.398,0.118,2.812,0.177,4.241,0.179c0.189-0.002,0.381-0.002,0.571-0.004l-0.022-1.97
	C50.594,128.029,50.411,128.029,50.227,128.029z M68.274,124.541l0.736,1.826c1.497-0.604,2.957-1.277,4.378-2.016l-0.911-1.747
	C71.115,123.314,69.71,123.961,68.274,124.541z M43.274,127.533v-0.002V127.533L43.274,127.533z M38.27,33.008l-0.486-1.91
	c-1.566,0.4-3.104,0.874-4.606,1.415l0.667,1.854v-0.002C35.29,33.845,36.766,33.389,38.27,33.008z M61.059,30.53
	c0-1.032-0.152-2.026-0.423-2.972c3.272-2.885,5.348-7.094,5.349-11.801C65.983,7.053,58.928,0,50.226,0
	C41.523,0,34.47,7.053,34.468,15.758c0.001,4.706,2.076,8.916,5.348,11.801c-0.27,0.945-0.423,1.939-0.423,2.971
	c0,0.367,0.021,0.724,0.055,1.07l0.103,1.088l1.071-0.214c0.615-0.125,1.237-0.228,1.86-0.329c0.204-0.033,0.405-0.071,0.609-0.102
	c0.55-0.082,1.106-0.146,1.662-0.209c0.24-0.027,0.477-0.061,0.717-0.084c1.547-0.152,3.115-0.232,4.703-0.234
	c0.018,0,0.036-0.001,0.054-0.001c0.906-0.002,1.805,0.031,2.697,0.08c1.349,0.074,2.68,0.21,3.996,0.393
	c0.303,0.042,0.604,0.083,0.905,0.131c0.502,0.08,1.002,0.17,1.5,0.265c0.439,0.084,0.882,0.161,1.317,0.257l0.001-0.003
	l0.258,0.052l0.105-1.091c0.024-0.258,0.032-0.527,0.039-0.796l0.019-0.087c-0.005-0.001-0.01-0.002-0.015-0.003
	C61.051,30.652,61.059,30.594,61.059,30.53z M58.948,30.305c-0.385-0.067-0.774-0.123-1.163-0.181
	c-0.375-0.057-0.749-0.115-1.126-0.164c-0.116-0.015-0.229-0.036-0.345-0.05l-0.001,0.011c-0.99-0.12-1.991-0.209-2.998-0.271
	l0.001-0.013c-0.113-0.007-0.229-0.004-0.342-0.01c-0.89-0.048-1.784-0.081-2.687-0.082c-0.02,0-0.04-0.002-0.06-0.002
	c-0.578,0-1.153,0.01-1.727,0.031l0,0.008c-1.01,0.034-2.012,0.094-3.006,0.188l0-0.006c-0.326,0.031-0.647,0.078-0.972,0.115
	c-0.385,0.043-0.771,0.083-1.154,0.136c-0.412,0.057-0.819,0.125-1.228,0.191c-0.257,0.042-0.518,0.075-0.774,0.121
	c0.116-4.801,4.035-8.652,8.861-8.66c4.828,0.008,8.745,3.858,8.86,8.66C59.041,30.319,58.994,30.313,58.948,30.305z M43.788,21.832
	c-1.498-1.585-2.421-3.72-2.425-6.074c0.008-4.896,3.969-8.855,8.863-8.863c4.896,0.008,8.855,3.967,8.863,8.863
	c-0.004,2.355-0.927,4.489-2.424,6.074c-1.802-1.336-4.024-2.136-6.439-2.136S45.589,20.496,43.788,21.832z M58.13,23.138
	c1.811-1.934,2.929-4.522,2.929-7.38c0-5.985-4.851-10.833-10.833-10.833c-5.983,0-10.832,4.849-10.834,10.833
	c0.001,2.858,1.119,5.447,2.929,7.381c-0.681,0.729-1.264,1.549-1.725,2.444c-2.552-2.5-4.151-5.968-4.159-9.825
	C36.453,8.142,42.613,1.982,50.226,1.97C57.84,1.982,64,8.142,64.013,15.758c-0.006,3.857-1.605,7.325-4.157,9.825
	C59.396,24.687,58.813,23.867,58.13,23.138z M63.988,31.455l-0.538,1.894c1.491,0.424,2.954,0.918,4.386,1.479l0.718-1.833
	C67.066,32.41,65.542,31.896,63.988,31.455z M65.557,125.543L65.557,125.543c0.001,0,0.001,0,0.002,0H65.557z M61.105,126.798
	l0.442,1.921c1.575-0.363,3.122-0.8,4.639-1.308l-0.629-1.867C64.103,126.031,62.619,126.449,61.105,126.798z"/>
<path fill="#30D9BF" d="M69.921,45.661c-5.795-3.354-12.518-5.282-19.694-5.282v37.115c0.415,0,0.799,0.119,1.135,0.313
	L69.921,45.661z"/>
<path fill="#3570FF" d="M29.676,113.396l1.707,0.985l4.923-8.528l-1.705-0.986L29.676,113.396z M15.617,60.927l8.53,4.924
	l0.984-1.705l-8.529-4.924L15.617,60.927z M29.677,46.148l4.923,8.528l1.707-0.985l-4.925-8.528L29.677,46.148z M20.681,78.788
	h-9.849v1.97h9.849V78.788z M15.617,98.616l0.986,1.706l8.528-4.925l-0.984-1.706L15.617,98.616z M51.212,40.378h-1.97v9.848h1.97
	V40.378z M49.243,119.167h1.969v-9.85h-1.969V119.167z M64.146,105.85l4.925,8.531l1.704-0.983l-4.923-8.531L64.146,105.85z
	 M75.322,95.397l8.529,4.925l0.984-1.706l-8.53-4.925L75.322,95.397z M84.835,60.929l-0.984-1.706l-8.53,4.924l0.983,1.704
	L84.835,60.929z M79.771,78.787v1.97h9.85v-1.97H79.771z M64.146,53.692l1.705,0.986l4.925-8.531l-1.706-0.984L64.146,53.692z
	 M62.055,59.289c-0.474-0.272-1.076-0.11-1.347,0.361l-9.687,16.777c-0.256-0.061-0.52-0.101-0.794-0.101
	c-1.905,0-3.447,1.542-3.447,3.445c0,0.917,0.363,1.744,0.947,2.361l-2.308,3.997c-0.274,0.472-0.111,1.074,0.36,1.346
	c0.155,0.09,0.324,0.133,0.491,0.133c0.341,0,0.673-0.178,0.855-0.493l2.308-3.997c0.256,0.061,0.52,0.101,0.795,0.101
	c1.903,0,3.445-1.544,3.445-3.447c0-0.915-0.363-1.742-0.945-2.36l9.687-16.776C62.686,60.163,62.523,59.56,62.055,59.289z
	 M50.227,81.249c-0.816,0-1.477-0.662-1.477-1.478s0.661-1.477,1.477-1.477s1.478,0.661,1.478,1.477S51.043,81.249,50.227,81.249z"
	/>
</svg>
