<?xml version="1.0" encoding="utf-8"?>
<!-- Generator: Adobe Illustrator 13.0.0, SVG Export Plug-In . SVG Version: 6.00 Build 14948)  -->
<!DOCTYPE svg [
	<!ENTITY ns_flows "http://ns.adobe.com/Flows/1.0/">
	<!ENTITY ns_extend "http://ns.adobe.com/Extensibility/1.0/">
	<!ENTITY ns_ai "http://ns.adobe.com/AdobeIllustrator/10.0/">
	<!ENTITY ns_graphs "http://ns.adobe.com/Graphs/1.0/">
]>
<svg version="1.2" baseProfile="tiny" id="Layer_1" xmlns:x="&ns_extend;" xmlns:i="&ns_ai;" xmlns:graph="&ns_graphs;"
	 xmlns="http://www.w3.org/2000/svg" xmlns:xlink="http://www.w3.org/1999/xlink" xmlns:a="http://ns.adobe.com/AdobeSVGViewerExtensions/3.0/"
	 x="0px" y="0px" width="80.755px" height="130px" viewBox="0 0 80.755 130" xml:space="preserve">
<g id="traffic-lights">
	<circle fill="#30D9BF" cx="40.377" cy="105.992" r="9.849"/>
	<circle fill="#F0E3E3" cx="40.377" cy="69.433" r="9.849"/>
	<circle fill="#F0E3E3" cx="40.377" cy="32.875" r="9.849"/>
	<path fill="#3570FF" d="M1.969,78.205H0v5.416h1.969V78.205z M1.969,69.833H0v5.416h1.969V69.833z M1.969,61.462H0v5.416h1.969
		V61.462z M1.969,111.688H0v5.417h1.969V111.688z M0.042,120.147c0.186,2.046,0.947,3.931,2.114,5.49l1.578-1.18
		c-0.959-1.279-1.578-2.818-1.73-4.487L0.042,120.147z M1.969,53.09H0v5.417h1.969V53.09z M1.969,86.576H0v5.417h1.969V86.576z
		 M1.969,103.317H0v5.418h1.969V103.317z M1.969,94.947H0v5.417h1.969V94.947z M53.561,0h-5.416v1.97h5.416V0z M45.191,0h-5.417
		v1.97h5.417V0z M1.969,44.719H0v5.418h1.969V44.719z M36.82,0h-5.417v1.97h5.417V0z M4.457,127.91
		c1.572,1.151,3.465,1.894,5.515,2.056L10.126,128c-1.674-0.133-3.219-0.734-4.506-1.678L4.457,127.91z M76.797,5.257l1.527-1.245
		c-1.247-1.531-2.902-2.719-4.802-3.394l-0.658,1.857h-0.002C74.415,3.025,75.773,4,76.797,5.257z M28.449,0h-5.416v1.97h5.416V0z
		 M1.969,27.978H0v5.416h1.969V27.978z M1.969,36.349H0v5.417h1.969V36.349z M1.969,11.235H0v5.417h1.969V11.235z M4.726,4.427
		L3.365,3C1.943,4.357,0.883,6.098,0.361,8.057l1.904,0.506C2.691,6.967,3.557,5.539,4.726,4.427z M1.969,19.606H0v5.416h1.969
		V19.606z M64.887,0v1.97h5.034c0.115,0,0.229,0.002,0.344,0.006l0.078-1.968C70.202,0.002,70.063,0,69.921,0H64.887z
		 M78.786,79.459h1.97v-5.417h-1.97V79.459z M78.786,62.719h1.97v-5.416h-1.97V62.719z M78.786,71.087h1.97v-5.414h-1.97V71.087z
		 M6.012,1.139L6.894,2.9C8.082,2.304,9.418,1.97,10.832,1.97h0.874V0h-0.874C9.104,0,7.465,0.41,6.012,1.139z M78.786,96.202h1.97
		v-5.415h-1.97V96.202z M78.786,112.945h1.97v-5.416h-1.97V112.945z M78.786,104.574h1.97v-5.416h-1.97V104.574z M78.786,20.863
		h1.97v-5.418h-1.97V20.863z M79.971,6.798l-1.824,0.738h-0.002c0.414,1.021,0.641,2.131,0.641,3.298v1.658h1.97v-1.658
		C80.755,9.412,80.477,8.047,79.971,6.798z M78.786,29.233h1.97v-5.417h-1.97V29.233z M78.786,45.976h1.97v-5.417h-1.97V45.976z
		 M78.786,37.604h1.97v-5.417h-1.97V37.604z M78.786,54.347h1.97v-5.416h-1.97V54.347z M78.786,87.831h1.97v-5.416h-1.97V87.831z
		 M13.002,130h5.416v-1.971h-5.416V130z M21.373,130h5.417v-1.971h-5.417V130z M14.661,1.97h5.416V0h-5.416V1.97z M78.786,119.166
		c0,1.694-0.48,3.276-1.314,4.626l1.678,1.033c1.017-1.646,1.606-3.59,1.606-5.659v-3.267h-1.97V119.166z M46.486,130h5.418v-1.971
		h-5.418V130z M38.116,130h5.416v-1.971h-5.416V130z M56.516,1.97h5.416V0h-5.416V1.97z M63.228,130h5.416v-1.971h-5.416V130z
		 M54.857,130h5.416v-1.971h-5.416V130z M75.76,125.818c-1.206,1.063-2.697,1.801-4.336,2.083l0.334,1.94
		c2.011-0.346,3.833-1.251,5.305-2.545l-1.303-1.476V125.818z M29.745,130h5.416v-1.971h-5.416V130z M24.135,30.139
		c0.087,0.464,0.493,0.801,0.966,0.801c0.473,0,0.88-0.337,0.969-0.799c1.28-6.739,7.194-11.843,14.306-11.841v0.002
		c7.112-0.004,13.028,5.1,14.307,11.839c0.087,0.464,0.497,0.799,0.969,0.799c0.474,0,0.878-0.337,0.968-0.801
		c0.188-0.999,0.3-2.033,0.298-3.1c0-9.113-7.37-16.506-16.477-16.542c-0.021-0.001-0.043-0.002-0.064-0.002
		c-9.137,0.002-16.542,7.407-16.542,16.544C23.834,28.106,23.946,29.141,24.135,30.139z M40.376,12.467
		c7.257,0.013,13.264,5.308,14.386,12.249c-2.843-5.006-8.217-8.383-14.386-8.386v0.002c-6.169,0.001-11.543,3.377-14.384,8.383
		C27.114,17.773,33.119,12.48,40.376,12.467z M26.867,32.874c0,7.461,6.047,13.508,13.51,13.51
		c7.46-0.002,13.509-6.049,13.509-13.51h0.002c-0.002-7.462-6.054-13.51-13.511-13.512c-0.005,0-0.009,0-0.014,0.001
		c0.005,0,0.007-0.001,0.012-0.001C32.912,19.364,26.867,25.412,26.867,32.874z M39.788,21.136L39.788,21.136
		c-0.018-0.013-0.035-0.027-0.053-0.042C39.752,21.108,39.77,21.122,39.788,21.136z M39.499,19.902L39.499,19.902l-0.003,0.009
		C39.497,19.907,39.498,19.905,39.499,19.902z M40.398,21.333c6.361,0.021,11.509,5.174,11.52,11.541
		c-0.011,6.372-5.167,11.528-11.541,11.539c-6.374-0.01-11.529-5.167-11.541-11.539c0.01-6.369,5.157-11.523,11.525-11.541
		C40.373,21.333,40.386,21.333,40.398,21.333z M55.648,67.5h0.004c0.474,0,0.878-0.338,0.968-0.8c0.188-1,0.3-2.035,0.3-3.102
		c-0.002-9.135-7.406-16.542-16.543-16.542s-16.542,7.407-16.542,16.542c0,1.067,0.112,2.102,0.301,3.102
		c0.087,0.465,0.493,0.8,0.966,0.8c0.473,0.002,0.88-0.335,0.969-0.8c1.28-6.739,7.194-11.841,14.306-11.839
		c7.11-0.004,13.026,5.098,14.308,11.839C54.771,67.163,55.177,67.5,55.648,67.5z M40.376,52.889c-0.021,0-0.043,0.001-0.064,0.002
		c-6.141,0.025-11.488,3.394-14.319,8.382c1.122-6.941,7.127-12.234,14.384-12.247c7.258,0.012,13.264,5.307,14.384,12.249
		C51.918,56.269,46.545,52.892,40.376,52.889z M40.376,55.921c-7.461,0-13.509,6.049-13.511,13.511
		c0.002,7.462,6.05,13.51,13.511,13.51c7.46,0,13.511-6.048,13.511-13.51S47.836,55.921,40.376,55.921z M40.376,80.973
		c-6.373,0-11.541-5.167-11.541-11.543c0.012-6.373,5.168-11.528,11.541-11.539c6.373,0.011,11.528,5.168,11.541,11.541
		C51.905,75.804,46.75,80.959,40.376,80.973z M55.652,104.058c0.472,0,0.878-0.338,0.969-0.802c0.187-0.998,0.298-2.032,0.298-3.1
		c0-9.135-7.406-16.541-16.542-16.543c-9.136,0.002-16.541,7.408-16.541,16.543c0,1.067,0.11,2.102,0.299,3.1
		c0.087,0.467,0.494,0.802,0.967,0.802c0.474,0,0.881-0.335,0.968-0.8c1.28-6.739,7.195-11.843,14.308-11.841v0.002
		c7.111-0.004,13.027,5.1,14.308,11.839C54.771,103.723,55.18,104.058,55.652,104.058z M40.376,89.448v0.002
		c-6.169,0.002-11.542,3.377-14.384,8.384c1.12-6.941,7.127-12.236,14.384-12.249c7.259,0.013,13.264,5.308,14.385,12.248
		C51.919,92.827,46.544,89.451,40.376,89.448z M40.378,92.482c-7.464,0-13.511,6.048-13.511,13.509
		c0,7.458,6.045,13.508,13.509,13.51h1.261l-0.015-0.059c6.877-0.628,12.265-6.409,12.265-13.451
		C53.887,98.53,47.837,92.482,40.378,92.482z M40.378,117.53C40.377,117.53,40.377,117.53,40.378,117.53c-0.001,0-0.001,0-0.002,0
		c-6.374-0.011-11.528-5.169-11.54-11.539c0.012-6.373,5.167-11.529,11.542-11.54c6.372,0.011,11.528,5.167,11.541,11.54
		C51.906,112.362,46.751,117.519,40.378,117.53z"/>
	<path fill="#F0E3E3" d="M29.305,12.045l-7.119-7.119h-4.179l9.054,9.053C27.752,13.275,28.508,12.635,29.305,12.045z
		 M31.196,47.365L4.923,21.092v4.177l23.786,23.787C29.49,48.428,30.32,47.863,31.196,47.365z M26.553,51.078l-21.63-21.63v4.178
		l19.809,19.809C25.277,52.6,25.887,51.814,26.553,51.078z M23.272,56.153L4.923,37.804v4.178L22.22,59.278
		C22.478,58.196,22.835,57.153,23.272,56.153z M22.047,67.096c-0.225-1.178-0.339-2.355-0.339-3.498c0-0.212,0.018-0.419,0.024-0.63
		L4.923,46.16v4.178l17.268,17.268C22.13,67.443,22.08,67.273,22.047,67.096z M34.829,9.214l-4.289-4.288h-4.178l5.514,5.514
		C32.82,9.955,33.802,9.535,34.829,9.214z M32.801,83.101c-3.003-1.671-5.396-4.302-6.77-7.475L4.923,54.519v4.179l25.611,25.611
		C31.259,83.858,32.015,83.452,32.801,83.101z M28.136,86.087L4.923,62.874v4.179L26.07,88.199
		C26.704,87.443,27.393,86.735,28.136,86.087z M23.983,69.397l0.792,0.792c-0.01-0.198-0.025-0.395-0.027-0.594
		C24.481,69.564,24.228,69.491,23.983,69.397z M4.923,108.836l16.24,16.239h4.178L4.923,104.658V108.836z M7.714,124.161
		l-1.876-1.877C6.316,123.043,6.956,123.683,7.714,124.161z M4.923,117.191l7.883,7.884h4.179L4.923,113.013V117.191z
		 M58.709,103.656c-0.025,0.126-0.063,0.246-0.102,0.366l16.919,16.919c0.18-0.564,0.304-1.153,0.304-1.775v-2.099l-16.789-16.79
		C59.033,101.381,58.925,102.517,58.709,103.656z M75.831,10.835c0-3.25-2.659-5.909-5.909-5.908l-1.775,0l7.685,7.684V10.835z
		 M40.377,8.372c0.709,0,1.405,0.048,2.094,0.125L38.9,4.927h-4.181l3.57,3.57C38.976,8.42,39.67,8.372,40.377,8.372z M25.164,16.26
		L13.829,4.926h-2.997c-0.366,0-0.723,0.043-1.072,0.108L23.61,18.885C24.059,17.967,24.575,17.087,25.164,16.26z M22.445,21.898
		L6.96,6.413c-0.762,0.668-1.344,1.52-1.685,2.494l16.515,16.516C21.896,24.21,22.12,23.034,22.445,21.898z M4.923,100.48
		l24.596,24.595h4.178L4.923,96.301V100.48z M24.334,90.642L4.923,71.23v4.178l18.035,18.036
		C23.337,92.465,23.804,91.533,24.334,90.642z M24.749,33.037c-1.338-0.154-2.447-1.148-2.702-2.5
		c-0.051-0.265-0.075-0.53-0.115-0.795L4.923,12.733v4.181l20.503,20.503C25.005,36.028,24.764,34.56,24.749,33.037z M53.854,40.773
		L75.831,62.75v-4.178L55.168,37.909C54.825,38.913,54.384,39.872,53.854,40.773z M56.006,33.037
		c-0.005,0.487-0.041,0.968-0.09,1.444l19.914,19.914v-4.178L57.804,32.19C57.323,32.651,56.697,32.957,56.006,33.037z
		 M58.708,67.095c-0.173,0.917-0.742,1.659-1.505,2.098L75.831,87.82v-4.18L58.78,66.589C58.751,66.758,58.74,66.926,58.708,67.095z
		 M59.01,62.642l16.82,16.82v-4.178L57.989,57.442C58.565,59.083,58.917,60.828,59.01,62.642z M49.943,45.218l25.888,25.889v-4.179
		L52.097,43.194C51.446,43.935,50.723,44.612,49.943,45.218z M75.831,16.789L63.968,4.927h-4.178l16.04,16.04V16.789z
		 M75.831,25.145L55.612,4.927l-4.178,0l24.396,24.397V25.145z M59.046,27.04c0.001,0.683-0.054,1.379-0.135,2.079l16.919,16.919
		v-4.181L58.921,24.948C58.999,25.635,59.046,26.331,59.046,27.04z M57.246,19.094l18.585,18.584v-4.177L47.256,4.926l-4.179,0
		l5.248,5.247C52.235,12.023,55.395,15.183,57.246,19.094z M56.469,106.065c-0.15,0.04-0.306,0.072-0.463,0.09
		c-0.012,1.114-0.146,2.198-0.379,3.245l15.537,15.537c1.044-0.226,1.978-0.738,2.739-1.438L56.469,106.065z M48.713,119.199
		l5.877,5.876h4.178l-7.702-7.702C50.342,118.052,49.554,118.664,48.713,119.199z M42.61,121.451l3.624,3.624h4.178l-4.482-4.481
		C44.872,120.997,43.762,121.286,42.61,121.451z M31.931,119.131l5.945,5.943h4.18l-3.573-3.573
		C36.09,121.21,33.865,120.379,31.931,119.131z M24.87,107.889L4.923,87.943v4.181l22.337,22.337
		C26.005,112.52,25.163,110.291,24.87,107.889z M47.955,83.102c5.146,2.295,9.062,6.855,10.492,12.402l17.384,17.384v-4.177
		L49.341,82.222C48.894,82.537,48.434,82.834,47.955,83.102z M53.021,115.151l9.925,9.925h4.179l-12.56-12.56
		C54.136,113.447,53.618,114.329,53.021,115.151z M54.883,75.23l20.947,20.946v-4.178L55.795,71.963
		C55.61,73.098,55.3,74.19,54.883,75.23z M51.594,80.296l24.236,24.236v-4.178l-22.379-22.38
		C52.906,78.807,52.284,79.583,51.594,80.296z M21.708,100.157c0-1.181,0.123-2.331,0.333-3.452L4.923,79.586v4.178l16.806,16.806
		C21.726,100.433,21.708,100.292,21.708,100.157z"/>
</g>
</svg>
